<svg width="1350" height="375" viewBox="0 0 1350 375" fill="none" xmlns="http://www.w3.org/2000/svg">
<path d="M79.0215 374.5C64.3548 374.5 51.0215 369.667 39.0215 360C27.3548 350 18.0215 335.833 11.0215 317.5C4.02149 299.167 0.521485 277.333 0.521485 252C0.521485 223.667 4.68815 199 13.0215 178C21.6882 157 33.3548 140.833 48.0215 129.5C62.6882 117.833 79.0215 112 97.0215 112C112.355 112 124.355 115 133.021 121C136.355 123.333 138.021 127 138.021 132L139.021 193C139.021 198 137.021 200.5 133.021 200.5C129.355 200.5 127.021 198.333 126.021 194C121.355 175.667 116.855 161.5 112.521 151.5C108.188 141.5 103.688 134.667 99.0215 131C94.3548 127 89.1882 125 83.5215 125C76.8548 125 69.8548 128.833 62.5215 136.5C55.5215 144.167 49.5215 156.667 44.5215 174C39.8548 191 37.5215 213.5 37.5215 241.5C37.5215 277.167 42.0215 304 51.0215 322C60.3548 340 72.3548 349 87.0215 349C98.6882 349 108.355 344.167 116.021 334.5C124.021 324.833 130.855 307.333 136.521 282C137.521 278.333 139.521 276.5 142.521 276.5C146.521 276.5 148.021 279.833 147.021 286.5C143.355 309.833 138.188 328 131.521 341C125.188 353.667 117.521 362.5 108.521 367.5C99.8548 372.167 90.0215 374.5 79.0215 374.5ZM259.955 374.5C242.955 374.5 227.622 368.833 213.955 357.5C200.622 345.833 189.955 330 181.955 310C173.955 290 169.955 267.667 169.955 243C169.955 218.333 173.955 196.167 181.955 176.5C189.955 156.833 200.788 141.167 214.455 129.5C228.122 117.833 243.288 112 259.955 112C276.955 112 292.122 117.833 305.455 129.5C319.122 141.167 329.955 156.833 337.955 176.5C345.955 196.167 349.955 218.333 349.955 243C349.955 267.667 345.955 290 337.955 310C330.288 330 319.622 345.833 305.955 357.5C292.288 368.833 276.955 374.5 259.955 374.5ZM259.955 362C294.622 362 311.955 322.333 311.955 243C311.955 164 294.622 124.5 259.955 124.5C225.288 124.5 207.955 164 207.955 243C207.955 322.333 225.288 362 259.955 362ZM372.557 370C368.557 370 366.557 368.167 366.557 364.5C366.557 361.167 368.39 359.167 372.057 358.5L379.057 357.5C386.057 356.5 391.223 354.5 394.557 351.5C397.89 348.5 399.557 343.5 399.557 336.5V50C399.557 44 398.557 39.8333 396.557 37.5C394.89 35.1666 391.723 33.8333 387.057 33.5L375.557 32C371.89 31.3333 370.057 29.3333 370.057 26C370.057 22.6667 371.89 20.6667 375.557 20C384.89 18 392.89 15.6666 399.557 13C406.223 10.3333 411.723 7.66664 416.057 4.99999C421.39 1.66666 425.39 -4.76837e-06 428.057 -4.76837e-06C431.723 -4.76837e-06 433.557 2.66666 433.557 7.99998V336.5C433.557 343.5 434.557 348.5 436.557 351.5C438.89 354.167 443.557 356 450.557 357L462.057 358.5C465.723 359.167 467.557 361.167 467.557 364.5C467.557 368.167 465.557 370 461.557 370H372.557ZM568.42 374.5C552.42 374.5 538.087 369.167 525.42 358.5C512.753 347.833 502.587 332.833 494.92 313.5C487.587 293.833 483.92 271.167 483.92 245.5C483.92 219.167 487.753 196 495.42 176C503.087 156 513.587 140.333 526.92 129C540.253 117.667 555.087 112 571.42 112C591.087 112 606.92 120.167 618.92 136.5C631.253 152.5 637.42 178.667 637.42 215C637.42 226 633.253 231.5 624.92 231.5H529.92C523.253 231.5 519.92 235.333 519.92 243C519.92 278.333 525.087 304.833 535.42 322.5C545.753 340.167 558.92 349 574.92 349C587.587 349 597.92 344.5 605.92 335.5C613.92 326.5 620.42 311.333 625.42 290C626.42 286.333 628.587 284.5 631.92 284.5C635.92 284.5 637.42 287.833 636.42 294.5C631.087 324.167 622.587 345 610.92 357C599.253 368.667 585.087 374.5 568.42 374.5ZM528.42 219H578.92C594.92 219 602.92 210.667 602.92 194C602.92 172.333 600.253 155.333 594.92 143C589.587 130.667 581.587 124.5 570.92 124.5C557.92 124.5 546.92 132 537.92 147C529.253 162 523.587 183.333 520.92 211C520.253 216.333 522.753 219 528.42 219ZM703.654 374.5C696.321 374.5 689.988 372.167 684.654 367.5C679.654 362.5 677.154 356 677.154 348C677.154 340.333 679.654 334.167 684.654 329.5C689.988 324.5 696.321 322 703.654 322C710.321 322 716.321 324.5 721.654 329.5C726.988 334.167 729.654 340.333 729.654 348C729.654 356 726.988 362.5 721.654 367.5C716.321 372.167 710.321 374.5 703.654 374.5ZM832.939 374.5C818.273 374.5 805.106 369.5 793.439 359.5C782.106 349.167 773.273 335 766.939 317C760.606 298.667 757.439 277.5 757.439 253.5C757.439 225.5 761.773 201 770.439 180C779.106 158.667 791.106 142 806.439 130C821.773 118 839.106 112 858.439 112C863.106 112 867.773 112.5 872.439 113.5C877.106 114.167 881.606 115.5 885.939 117.5C891.273 120.167 893.939 119 893.939 114V50C893.939 44 892.939 39.8333 890.939 37.5C889.273 35.1666 886.106 33.8333 881.439 33.5L868.439 32C864.773 31.3333 862.939 29.3333 862.939 26C862.939 22.6667 864.773 20.6667 868.439 20C879.106 18 887.606 15.6666 893.939 13C900.606 10.3333 906.106 7.66664 910.439 4.99999C915.773 1.66666 919.773 -4.76837e-06 922.439 -4.76837e-06C926.106 -4.76837e-06 927.939 2.66666 927.939 7.99998V322.5C927.939 336.5 931.439 343.5 938.439 343.5C942.773 343.5 946.773 340.667 950.439 335C954.106 329 955.939 319 955.939 305C955.939 299.667 958.106 297 962.439 297C966.439 297 968.439 299.833 968.439 305.5C968.439 329.833 964.273 347.5 955.939 358.5C947.606 369.167 938.106 374.5 927.439 374.5C917.773 374.5 910.439 371.333 905.439 365C900.439 358.333 897.106 350.5 895.439 341.5C895.106 338.833 893.939 337.5 891.939 337.5C889.939 337.167 888.106 338.333 886.439 341C877.106 354 868.606 362.833 860.939 367.5C853.273 372.167 843.939 374.5 832.939 374.5ZM843.939 351.5C852.606 351.5 860.606 348.667 867.939 343C875.606 337 881.773 329 886.439 319C891.439 309 893.939 297.833 893.939 285.5V173C893.939 158 890.439 146.167 883.439 137.5C876.773 128.833 867.939 124.5 856.939 124.5C838.273 124.5 823.106 135.5 811.439 157.5C800.106 179.167 794.439 208.833 794.439 246.5C794.439 280.833 798.773 307 807.439 325C816.439 342.667 828.606 351.5 843.939 351.5ZM1066.96 374.5C1050.96 374.5 1036.62 369.167 1023.96 358.5C1011.29 347.833 1001.12 332.833 993.455 313.5C986.122 293.833 982.455 271.167 982.455 245.5C982.455 219.167 986.288 196 993.955 176C1001.62 156 1012.12 140.333 1025.46 129C1038.79 117.667 1053.62 112 1069.96 112C1089.62 112 1105.46 120.167 1117.46 136.5C1129.79 152.5 1135.96 178.667 1135.96 215C1135.96 226 1131.79 231.5 1123.46 231.5H1028.46C1021.79 231.5 1018.46 235.333 1018.46 243C1018.46 278.333 1023.62 304.833 1033.96 322.5C1044.29 340.167 1057.46 349 1073.46 349C1086.12 349 1096.46 344.5 1104.46 335.5C1112.46 326.5 1118.96 311.333 1123.96 290C1124.96 286.333 1127.12 284.5 1130.46 284.5C1134.46 284.5 1135.96 287.833 1134.96 294.5C1129.62 324.167 1121.12 345 1109.46 357C1097.79 368.667 1083.62 374.5 1066.96 374.5ZM1026.96 219H1077.46C1093.46 219 1101.46 210.667 1101.46 194C1101.46 172.333 1098.79 155.333 1093.46 143C1088.12 130.667 1080.12 124.5 1069.46 124.5C1056.46 124.5 1045.46 132 1036.46 147C1027.79 162 1022.12 183.333 1019.46 211C1018.79 216.333 1021.29 219 1026.96 219ZM1245.69 374.5C1242.69 374.5 1240.52 372.667 1239.19 369L1172.69 148.5C1170.36 140.5 1168.02 135.333 1165.69 133C1163.69 130.667 1160.36 129 1155.69 128L1148.19 126.5C1143.86 125.5 1141.69 123.333 1141.69 120C1141.69 116.667 1144.02 115 1148.69 115H1231.19C1235.86 115 1238.19 116.667 1238.19 120C1238.19 123.667 1236.02 125.833 1231.69 126.5L1223.69 127.5C1215.69 128.5 1210.69 130.5 1208.69 133.5C1206.69 136.167 1206.69 141.167 1208.69 148.5L1250.19 293C1251.19 296.667 1252.86 298.5 1255.19 298.5C1257.52 298.5 1259.19 296.667 1260.19 293L1300.69 157.5C1303.36 148.5 1304.02 141.833 1302.69 137.5C1301.69 132.833 1297.02 129.833 1288.69 128.5L1278.19 126.5C1273.86 125.5 1271.69 123.333 1271.69 120C1271.69 116.667 1274.02 115 1278.69 115H1342.19C1346.86 115 1349.19 116.833 1349.19 120.5C1349.19 123.833 1347.19 126.167 1343.19 127.5L1338.69 129C1333.69 130.667 1329.36 133.667 1325.69 138C1322.36 142.333 1319.02 149.833 1315.69 160.5L1252.19 369C1250.86 372.667 1248.69 374.5 1245.69 374.5Z" fill="#39FF14"/>
</svg>
